<svg id="svg" version="1.1" xmlns="http://www.w3.org/2000/svg" xmlns:xlink="http://www.w3.org/1999/xlink" width="400" height="173.16636851520573" viewBox="0, 0, 400,173.16636851520573"><g id="svgg"><path id="path0" d="M325.086 7.053 C 324.910 7.511,324.985 7.876,325.421 8.696 C 327.542 12.680,327.152 18.496,324.533 21.930 C 324.307 22.225,324.123 22.543,324.123 22.636 C 324.123 22.729,323.868 23.111,323.556 23.485 C 322.111 25.220,321.189 26.636,319.806 29.244 C 315.367 37.610,319.594 49.797,328.311 53.769 C 330.783 54.896,331.180 54.554,329.460 52.780 C 328.127 51.406,326.751 49.467,326.119 48.073 C 325.860 47.501,325.519 46.766,325.362 46.439 C 324.889 45.456,324.961 41.629,325.478 40.277 C 326.051 38.778,326.545 37.753,326.982 37.159 C 327.192 36.873,327.535 36.327,327.743 35.946 C 328.269 34.983,329.299 33.593,330.697 31.962 C 335.994 25.780,337.192 19.031,333.925 13.780 C 333.085 12.429,330.264 9.681,328.924 8.907 C 325.683 7.036,325.184 6.795,325.086 7.053 M312.940 11.622 C 312.876 11.725,312.943 12.056,313.089 12.358 C 314.604 15.487,313.586 20.626,310.871 23.560 C 307.040 27.700,307.218 37.410,311.198 41.383 C 312.933 43.115,313.704 43.683,314.235 43.619 C 314.897 43.540,314.838 43.286,313.858 42.000 C 312.347 40.015,311.946 38.761,312.021 36.254 C 312.056 35.070,312.167 34.076,312.278 33.937 C 312.386 33.804,312.532 33.499,312.602 33.261 C 312.806 32.575,314.212 30.362,315.463 28.757 C 317.777 25.791,318.317 24.595,318.939 21.052 C 319.231 19.392,318.581 16.768,317.460 15.081 C 316.073 12.995,313.370 10.926,312.940 11.622 M336.423 34.411 C 335.613 35.516,334.543 36.976,334.045 37.656 C 333.548 38.335,333.078 38.969,333.001 39.065 C 330.934 41.634,330.991 45.119,333.131 47.058 C 334.894 48.654,335.321 48.275,334.430 45.907 C 333.938 44.603,334.521 41.844,335.452 41.072 C 335.605 40.945,335.730 40.767,335.730 40.677 C 335.730 40.587,336.087 40.075,336.525 39.538 C 338.274 37.390,339.079 34.752,338.511 33.030 C 338.203 32.097,338.039 32.205,336.423 34.411 M346.941 59.723 L 341.609 59.771 341.441 60.213 C 341.335 60.492,341.273 71.847,341.273 91.074 C 341.273 117.351,341.239 121.614,341.018 122.375 C 340.878 122.860,340.553 124.036,340.296 124.989 C 339.001 129.789,335.611 133.616,331.052 135.424 C 330.338 135.707,329.441 135.996,329.060 136.064 C 328.679 136.133,327.995 136.310,327.541 136.457 C 325.253 137.198,319.147 136.508,316.376 135.196 C 315.688 134.870,315.086 134.604,315.039 134.604 C 314.992 134.604,314.617 134.389,314.205 134.127 C 310.613 131.841,307.536 126.875,306.984 122.473 C 306.904 121.835,306.751 121.152,306.646 120.954 C 306.506 120.694,306.453 112.215,306.453 90.388 C 306.453 67.125,306.405 60.134,306.245 59.974 C 305.919 59.648,293.056 59.678,292.784 60.006 C 292.427 60.436,292.602 122.715,292.962 123.607 C 293.117 123.990,293.300 124.730,293.370 125.253 C 293.529 126.449,294.179 128.758,294.832 130.446 C 295.108 131.161,295.388 131.940,295.454 132.178 C 295.520 132.417,295.750 132.884,295.966 133.218 C 296.182 133.551,296.722 134.434,297.166 135.180 C 298.859 138.023,302.188 141.677,304.326 143.038 C 304.591 143.206,304.846 143.390,304.894 143.445 C 306.055 144.798,313.691 147.858,316.761 148.201 C 317.332 148.265,318.346 148.420,319.013 148.546 C 322.618 149.227,330.342 148.768,333.283 147.699 C 333.700 147.547,334.184 147.423,334.358 147.423 C 335.144 147.423,340.254 145.224,341.620 144.298 C 341.858 144.137,342.435 143.761,342.901 143.464 C 344.737 142.296,348.408 138.737,349.539 137.029 C 349.886 136.505,350.379 135.764,350.635 135.383 C 353.964 130.423,355.302 124.510,355.304 114.738 L 355.305 109.163 355.752 108.812 C 356.174 108.480,356.446 108.461,360.732 108.455 C 369.406 108.443,374.317 107.543,379.255 105.061 C 384.091 102.631,387.022 99.640,389.353 94.760 C 389.785 93.854,390.253 92.893,390.392 92.623 C 390.531 92.354,390.645 91.998,390.645 91.833 C 390.645 91.668,390.796 90.954,390.980 90.245 C 391.617 87.794,391.999 83.339,391.721 81.624 C 391.618 80.988,391.451 79.883,391.351 79.168 C 390.901 75.959,390.007 73.256,388.724 71.234 C 388.447 70.797,388.220 70.366,388.220 70.277 C 388.220 70.188,387.967 69.823,387.657 69.464 C 387.347 69.106,386.860 68.487,386.575 68.088 C 385.196 66.162,381.703 63.746,377.913 62.096 C 377.627 61.971,377.003 61.698,376.527 61.488 C 376.050 61.279,375.154 61.009,374.534 60.889 C 373.915 60.768,372.902 60.548,372.282 60.400 C 368.823 59.570,367.528 59.536,346.941 59.723 M367.234 70.701 C 369.726 71.312,370.280 71.509,371.611 72.259 C 377.252 75.440,379.445 83.665,376.376 90.132 C 376.030 90.861,375.747 91.534,375.747 91.626 C 375.747 92.763,371.566 95.842,368.807 96.737 C 365.829 97.704,356.530 98.139,355.684 97.351 L 355.305 96.998 355.305 83.938 C 355.305 72.296,355.335 70.848,355.578 70.606 C 356.048 70.135,365.235 70.210,367.234 70.701 M190.499 72.729 C 190.069 73.204,190.055 157.462,190.484 157.891 C 190.848 158.255,203.464 158.307,203.952 157.947 C 204.401 157.615,204.409 73.227,203.959 72.731 C 203.515 72.240,190.943 72.239,190.499 72.729 M31.615 74.060 C 31.044 74.181,30.186 74.357,29.710 74.451 C 27.940 74.799,26.115 75.362,24.899 75.935 C 24.210 76.260,23.452 76.585,23.214 76.657 C 22.120 76.989,19.060 78.885,17.910 79.944 C 17.804 80.041,17.398 80.385,17.009 80.708 C 15.123 82.271,11.434 87.479,11.434 88.578 C 11.434 88.638,11.247 89.098,11.019 89.601 C 9.272 93.459,9.041 101.411,10.553 105.673 C 11.198 107.492,11.975 109.226,12.299 109.571 C 12.479 109.762,12.689 110.075,12.766 110.267 C 13.395 111.833,16.159 114.642,18.669 116.267 C 21.154 117.875,21.312 117.968,21.774 118.083 C 22.017 118.145,22.850 118.465,23.625 118.796 C 24.399 119.127,25.266 119.489,25.552 119.600 C 25.838 119.711,26.228 119.886,26.418 119.987 C 26.609 120.089,27.137 120.273,27.592 120.396 C 28.047 120.519,28.461 120.686,28.512 120.769 C 28.563 120.851,28.741 120.918,28.909 120.918 C 29.076 120.918,30.065 121.196,31.107 121.535 C 32.149 121.875,33.859 122.375,34.907 122.647 C 37.021 123.196,39.510 124.064,40.125 124.467 C 40.345 124.611,40.616 124.729,40.728 124.729 C 42.334 124.729,46.514 128.604,47.473 130.981 L 48.039 132.386 47.926 134.980 C 47.446 146.071,34.831 150.149,22.244 143.282 C 21.950 143.121,20.858 142.409,19.819 141.700 C 15.159 138.518,13.740 138.193,11.665 139.828 C 10.598 140.669,10.511 140.791,8.393 144.478 C 7.653 145.764,6.994 146.856,6.928 146.903 C 6.711 147.060,6.410 147.740,6.410 148.073 C 6.410 148.748,9.832 151.604,12.473 153.134 C 13.188 153.548,14.049 154.070,14.388 154.293 C 14.726 154.516,15.077 154.699,15.167 154.700 C 15.348 154.701,16.901 155.466,17.213 155.708 C 17.461 155.901,21.361 157.286,22.174 157.470 C 38.137 161.089,50.716 157.835,57.387 148.363 C 58.715 146.477,59.412 145.335,59.759 144.474 C 59.970 143.952,60.262 143.252,60.408 142.919 C 60.681 142.295,60.996 141.272,61.795 138.415 C 62.509 135.862,62.503 128.631,61.785 126.029 C 60.825 122.552,58.831 119.190,56.542 117.190 C 52.860 113.971,50.388 112.597,44.522 110.512 C 43.521 110.157,42.119 109.654,41.407 109.395 C 40.694 109.137,39.685 108.814,39.164 108.679 C 38.644 108.543,38.136 108.368,38.035 108.289 C 37.934 108.211,37.618 108.092,37.332 108.025 C 36.308 107.787,32.798 106.468,31.225 105.731 C 30.343 105.318,29.563 104.981,29.492 104.981 C 28.205 104.981,24.736 100.943,24.181 98.799 C 22.798 93.462,26.043 88.666,32.308 86.791 C 35.705 85.774,42.703 86.559,45.991 88.325 C 46.371 88.529,46.761 88.696,46.858 88.697 C 46.954 88.697,47.688 89.086,48.489 89.563 C 49.290 90.039,49.970 90.429,50.000 90.429 C 50.030 90.429,50.394 90.668,50.809 90.960 C 52.102 91.872,53.858 92.228,54.983 91.807 C 56.296 91.316,56.690 90.841,58.213 87.917 C 58.610 87.155,58.997 86.453,59.073 86.358 C 59.148 86.262,59.421 85.678,59.679 85.058 C 59.936 84.439,60.250 83.816,60.376 83.673 C 61.346 82.573,60.736 81.842,56.561 79.100 C 54.465 77.724,50.601 76.004,48.073 75.324 C 47.692 75.221,46.873 74.994,46.254 74.819 C 45.634 74.644,44.443 74.418,43.606 74.317 C 42.769 74.216,41.687 74.058,41.200 73.966 C 39.918 73.723,32.878 73.791,31.615 74.060 M315.808 89.995 C 314.333 90.342,313.073 90.854,312.600 91.298 L 312.170 91.702 312.170 106.212 C 312.170 115.652,312.231 120.885,312.346 121.187 C 312.444 121.442,312.598 122.379,312.691 123.267 C 313.305 129.189,320.296 132.963,327.392 131.202 C 331.390 130.210,334.666 127.165,334.975 124.155 C 335.025 123.661,335.190 122.945,335.341 122.564 C 335.569 121.987,335.639 120.517,335.757 113.816 C 335.835 109.385,335.982 102.952,336.084 99.520 C 336.307 91.945,336.344 92.124,334.854 93.543 C 330.681 97.518,327.032 97.285,323.566 92.822 C 321.527 90.195,318.950 89.257,315.808 89.995 M94.240 98.226 C 91.227 98.725,88.957 99.288,87.051 100.012 C 84.621 100.935,83.908 101.228,83.714 101.385 C 83.594 101.482,83.265 101.688,82.984 101.842 C 81.084 102.884,75.877 107.472,75.877 108.105 C 75.877 108.197,75.738 108.411,75.568 108.581 C 75.397 108.752,75.073 109.200,74.848 109.578 C 74.622 109.955,74.188 110.654,73.882 111.130 C 73.577 111.607,73.234 112.283,73.121 112.632 C 73.007 112.982,72.806 113.358,72.674 113.467 C 72.543 113.577,72.382 113.914,72.319 114.217 C 72.255 114.520,72.099 115.002,71.972 115.288 C 71.846 115.574,71.627 116.236,71.487 116.761 C 71.346 117.285,71.066 118.298,70.865 119.013 C 69.652 123.314,69.507 130.992,70.530 136.769 C 71.037 139.634,72.986 144.855,74.054 146.210 C 74.167 146.353,74.480 146.860,74.751 147.337 C 75.758 149.112,77.458 151.156,79.290 152.793 C 80.083 153.503,82.682 155.392,82.864 155.392 C 82.957 155.392,83.289 155.587,83.601 155.825 C 83.914 156.063,84.208 156.258,84.255 156.258 C 84.303 156.258,84.834 156.481,85.436 156.754 C 93.798 160.545,108.235 159.130,114.768 153.880 C 115.054 153.650,115.853 153.014,116.543 152.466 C 119.124 150.421,119.577 149.587,118.720 148.463 C 117.980 147.491,116.678 145.741,116.280 145.186 C 115.407 143.964,114.309 143.125,113.494 143.057 C 111.873 142.920,111.337 143.151,108.618 145.153 C 107.129 146.250,105.731 146.960,103.461 147.773 C 98.416 149.579,90.466 147.093,88.081 142.962 C 87.902 142.653,87.704 142.399,87.641 142.399 C 87.577 142.399,87.425 142.146,87.302 141.836 C 87.180 141.527,86.868 140.952,86.609 140.559 C 86.351 140.166,86.042 139.542,85.923 139.173 C 85.804 138.804,85.643 138.421,85.565 138.322 C 85.487 138.223,85.341 137.629,85.241 137.002 C 85.141 136.375,84.939 135.522,84.793 135.108 C 83.966 132.763,84.078 123.585,84.969 120.758 C 85.106 120.322,85.387 119.424,85.593 118.763 C 86.674 115.295,89.166 112.063,91.882 110.608 C 92.273 110.398,92.903 110.060,93.280 109.856 C 93.658 109.652,94.167 109.485,94.411 109.485 C 94.656 109.485,95.029 109.363,95.241 109.214 C 95.728 108.874,100.565 108.677,102.122 108.935 C 104.338 109.302,107.062 110.473,110.174 112.396 C 112.846 114.047,115.060 112.605,118.367 107.058 L 118.817 106.304 118.415 105.826 C 117.754 105.040,115.673 103.243,115.115 102.976 C 114.829 102.839,114.283 102.496,113.902 102.212 C 111.666 100.551,107.182 98.985,102.469 98.217 C 101.400 98.043,95.306 98.050,94.240 98.226 M145.864 98.511 C 142.085 99.403,140.214 100.011,136.950 101.408 C 136.477 101.610,135.604 102.087,135.010 102.469 C 134.416 102.850,133.335 103.540,132.609 104.004 C 129.042 106.277,128.512 107.079,129.485 108.730 C 129.815 109.288,130.284 110.116,130.529 110.569 C 132.636 114.477,135.592 115.263,139.427 112.936 C 141.733 111.538,143.604 110.524,143.882 110.524 C 143.996 110.524,144.522 110.326,145.050 110.084 C 147.311 109.049,151.643 108.681,154.152 109.310 C 159.157 110.566,161.282 114.149,161.282 121.330 C 161.282 124.631,161.660 124.341,157.205 124.463 C 154.977 124.525,152.736 124.693,151.408 124.898 C 150.217 125.083,148.735 125.309,148.116 125.401 C 146.586 125.628,143.652 126.244,143.423 126.385 C 143.321 126.448,142.834 126.602,142.342 126.727 C 141.849 126.853,140.901 127.162,140.234 127.416 C 139.567 127.669,138.670 127.988,138.242 128.125 C 136.330 128.734,134.814 129.563,131.584 131.766 C 130.402 132.572,128.387 134.930,127.679 136.336 C 127.463 136.765,127.198 137.225,127.091 137.358 C 126.984 137.491,126.757 138.153,126.586 138.830 C 126.415 139.507,126.193 140.372,126.093 140.754 C 125.819 141.796,126.001 146.461,126.352 147.402 C 126.508 147.819,126.635 148.376,126.635 148.640 C 126.635 150.021,129.349 154.103,131.207 155.516 C 132.564 156.548,135.372 157.963,136.449 158.158 C 136.911 158.241,137.757 158.432,138.328 158.581 C 143.468 159.926,152.307 158.397,156.893 155.370 C 158.561 154.268,160.626 152.734,160.926 152.372 C 161.836 151.275,163.188 151.406,163.188 152.590 C 163.188 152.776,163.342 153.269,163.530 153.684 C 163.719 154.099,163.876 154.673,163.880 154.959 C 163.884 155.245,164.119 155.822,164.403 156.241 C 164.687 156.660,164.920 157.064,164.920 157.138 C 164.920 157.853,174.335 158.693,174.992 158.036 C 175.285 157.742,175.179 119.203,174.879 117.209 C 174.737 116.264,174.621 115.283,174.621 115.028 C 174.621 114.553,174.053 112.590,173.297 110.447 C 172.885 109.280,172.586 108.727,171.347 106.833 C 170.215 105.104,167.701 102.478,166.392 101.659 C 165.916 101.360,165.241 100.928,164.893 100.697 C 163.985 100.097,162.048 99.341,159.649 98.650 L 157.568 98.051 152.626 98.066 C 147.998 98.080,147.567 98.109,145.864 98.511 M238.805 98.564 C 237.661 98.824,236.453 99.123,236.120 99.229 C 233.583 100.032,232.785 100.329,232.458 100.589 C 232.328 100.693,231.946 100.867,231.608 100.975 C 231.083 101.144,229.102 102.375,227.209 103.709 C 225.592 104.848,221.762 109.226,221.041 110.760 C 220.838 111.192,220.562 111.637,220.427 111.749 C 220.292 111.861,220.182 112.018,220.182 112.098 C 220.182 112.178,219.906 112.824,219.569 113.533 C 216.179 120.676,215.701 131.500,218.424 139.454 C 219.371 142.221,219.904 143.653,220.100 143.958 C 220.323 144.305,220.682 144.951,221.064 145.691 C 221.236 146.024,221.692 146.726,222.076 147.250 C 222.461 147.774,222.960 148.476,223.186 148.810 C 223.694 149.559,226.918 152.732,227.977 153.524 C 229.091 154.357,230.675 155.392,230.835 155.392 C 230.910 155.392,231.359 155.631,231.834 155.923 C 235.934 158.446,247.770 159.867,252.639 158.421 C 253.116 158.280,253.885 158.164,254.349 158.164 C 254.813 158.164,255.403 158.056,255.660 157.924 C 255.918 157.792,256.596 157.588,257.168 157.470 C 260.454 156.796,265.017 154.289,268.462 151.265 C 270.263 149.684,270.255 149.593,268.087 146.903 C 267.511 146.189,266.774 145.251,266.449 144.820 C 265.364 143.379,264.841 143.092,263.301 143.092 C 261.836 143.092,261.730 143.125,259.939 144.137 C 250.837 149.277,242.019 149.477,236.639 144.666 C 236.210 144.282,235.807 143.966,235.742 143.963 C 235.560 143.956,233.632 141.207,233.126 140.234 C 231.749 137.585,230.411 131.594,230.997 130.701 L 231.277 130.273 249.956 130.273 L 268.636 130.273 269.320 129.777 C 270.470 128.944,270.659 127.983,270.537 123.578 C 270.474 121.295,270.338 119.519,270.167 118.753 C 270.019 118.086,269.825 117.150,269.736 116.674 C 269.484 115.320,268.788 113.452,267.742 111.326 C 267.214 110.252,266.782 109.318,266.782 109.249 C 266.782 107.921,260.819 102.213,258.120 100.957 C 254.971 99.493,253.014 98.885,249.285 98.212 C 247.303 97.855,240.996 98.067,238.805 98.564 M249.372 108.621 C 253.196 109.833,255.576 112.189,257.036 116.204 C 257.874 118.512,258.066 121.397,257.405 121.749 C 256.755 122.095,231.788 121.970,231.365 121.619 C 231.019 121.332,231.100 120.026,231.514 119.202 C 231.638 118.955,231.791 118.480,231.853 118.146 C 232.166 116.491,233.636 113.837,235.239 112.036 C 236.010 111.169,237.747 109.854,238.532 109.542 C 238.872 109.407,239.307 109.219,239.498 109.125 C 239.688 109.031,240.273 108.834,240.797 108.687 C 241.321 108.539,241.984 108.350,242.269 108.266 C 243.307 107.963,248.042 108.199,249.372 108.621 M288.046 133.608 C 280.910 140.587,283.642 148.632,295.712 156.178 C 298.191 157.728,304.861 160.413,308.012 161.130 C 308.441 161.228,309.026 161.411,309.311 161.537 C 309.597 161.663,310.260 161.819,310.784 161.884 C 311.308 161.948,312.010 162.076,312.343 162.167 C 315.590 163.056,325.531 163.489,330.100 162.941 C 335.284 162.320,338.006 161.778,341.100 160.751 C 341.624 160.578,342.307 160.386,342.618 160.325 C 344.242 160.007,351.868 156.555,352.805 155.713 C 353.001 155.537,353.227 155.392,353.306 155.392 C 353.566 155.392,355.335 154.146,356.589 153.080 C 359.599 150.521,361.432 148.311,362.865 145.510 L 363.527 144.218 363.529 141.533 L 363.531 138.848 362.865 137.549 C 362.172 136.196,361.101 134.688,360.367 134.033 C 360.132 133.823,359.696 133.405,359.398 133.105 C 358.252 131.951,358.132 132.024,356.779 134.708 C 354.125 139.971,350.614 144.212,346.542 147.077 C 344.879 148.246,343.017 149.441,342.659 149.570 C 342.421 149.655,342.031 149.855,341.793 150.015 C 340.247 151.050,335.343 152.686,332.178 153.221 C 331.416 153.350,330.428 153.539,329.983 153.642 C 324.332 154.943,312.975 153.353,306.799 150.396 C 300.536 147.397,293.974 141.202,291.963 136.391 C 291.822 136.053,291.525 135.494,291.302 135.147 C 291.079 134.801,290.792 134.216,290.664 133.847 C 290.425 133.159,289.795 132.352,289.498 132.352 C 289.406 132.352,288.752 132.917,288.046 133.608 M160.965 133.158 C 161.825 133.936,161.311 143.958,160.411 143.958 C 160.311 143.958,159.924 144.251,159.550 144.608 C 155.836 148.165,149.399 150.270,145.358 149.249 C 144.731 149.091,143.899 148.881,143.508 148.783 C 138.739 147.587,137.980 139.871,142.336 136.867 C 144.594 135.309,146.097 134.742,149.935 134.000 C 150.697 133.853,151.672 133.648,152.100 133.546 C 152.529 133.443,153.816 133.320,154.959 133.273 C 156.707 133.201,159.922 132.982,160.489 132.896 C 160.577 132.882,160.791 133.000,160.965 133.158 " stroke="none" fill="#181918" fill-rule="evenodd"></path><path id="path1" d="M0.000 86.618 L 0.000 173.235 200.000 173.235 L 400.000 173.235 400.000 86.618 L 400.000 0.000 200.000 0.000 L 0.000 0.000 0.000 86.618 M328.924 8.907 C 330.264 9.681,333.085 12.429,333.925 13.780 C 337.192 19.031,335.994 25.780,330.697 31.962 C 329.299 33.593,328.269 34.983,327.743 35.946 C 327.535 36.327,327.192 36.873,326.982 37.159 C 326.545 37.753,326.051 38.778,325.478 40.277 C 324.961 41.629,324.889 45.456,325.362 46.439 C 325.519 46.766,325.860 47.501,326.119 48.073 C 326.751 49.467,328.127 51.406,329.460 52.780 C 331.180 54.554,330.783 54.896,328.311 53.769 C 319.594 49.797,315.367 37.610,319.806 29.244 C 321.189 26.636,322.111 25.220,323.556 23.485 C 323.868 23.111,324.123 22.729,324.123 22.636 C 324.123 22.543,324.307 22.225,324.533 21.930 C 327.152 18.496,327.542 12.680,325.421 8.696 C 324.985 7.876,324.910 7.511,325.086 7.053 C 325.184 6.795,325.683 7.036,328.924 8.907 M315.233 12.650 C 317.954 14.981,319.422 18.307,318.939 21.052 C 318.317 24.595,317.777 25.791,315.463 28.757 C 314.212 30.362,312.806 32.575,312.602 33.261 C 312.532 33.499,312.386 33.804,312.278 33.937 C 312.167 34.076,312.056 35.070,312.021 36.254 C 311.946 38.761,312.347 40.015,313.858 42.000 C 314.838 43.286,314.897 43.540,314.235 43.619 C 313.704 43.683,312.933 43.115,311.198 41.383 C 307.218 37.410,307.040 27.700,310.871 23.560 C 313.586 20.626,314.604 15.487,313.089 12.358 C 312.430 10.995,313.467 11.137,315.233 12.650 M338.511 33.030 C 339.079 34.752,338.274 37.390,336.525 39.538 C 336.087 40.075,335.730 40.587,335.730 40.677 C 335.730 40.767,335.605 40.945,335.452 41.072 C 334.521 41.844,333.938 44.603,334.430 45.907 C 335.321 48.275,334.894 48.654,333.131 47.058 C 330.991 45.119,330.934 41.634,333.001 39.065 C 333.078 38.969,333.548 38.335,334.045 37.656 C 338.426 31.674,338.156 31.954,338.511 33.030 M369.078 59.859 C 370.221 60.008,371.663 60.251,372.282 60.400 C 372.902 60.548,373.915 60.768,374.534 60.889 C 375.154 61.009,376.050 61.279,376.527 61.488 C 377.003 61.698,377.627 61.971,377.913 62.096 C 381.703 63.746,385.196 66.162,386.575 68.088 C 386.860 68.487,387.347 69.106,387.657 69.464 C 387.967 69.823,388.220 70.188,388.220 70.277 C 388.220 70.366,388.447 70.797,388.724 71.234 C 390.007 73.256,390.901 75.959,391.351 79.168 C 391.451 79.883,391.618 80.988,391.721 81.624 C 391.999 83.339,391.617 87.794,390.980 90.245 C 390.796 90.954,390.645 91.668,390.645 91.833 C 390.645 91.998,390.531 92.354,390.392 92.623 C 390.253 92.893,389.785 93.854,389.353 94.760 C 384.757 104.384,376.294 108.434,360.732 108.455 C 356.446 108.461,356.174 108.480,355.752 108.812 L 355.305 109.163 355.304 114.738 C 355.302 124.510,353.964 130.423,350.635 135.383 C 350.379 135.764,349.886 136.505,349.539 137.029 C 348.408 138.737,344.737 142.296,342.901 143.464 C 342.435 143.761,341.858 144.137,341.620 144.298 C 340.254 145.224,335.144 147.423,334.358 147.423 C 334.184 147.423,333.700 147.547,333.283 147.699 C 330.342 148.768,322.618 149.227,319.013 148.546 C 318.346 148.420,317.332 148.265,316.761 148.201 C 313.691 147.858,306.055 144.798,304.894 143.445 C 304.846 143.390,304.591 143.206,304.326 143.038 C 302.188 141.677,298.859 138.023,297.166 135.180 C 296.722 134.434,296.182 133.551,295.966 133.218 C 295.750 132.884,295.520 132.417,295.454 132.178 C 295.388 131.940,295.108 131.161,294.832 130.446 C 294.179 128.758,293.529 126.449,293.370 125.253 C 293.300 124.730,293.117 123.990,292.962 123.607 C 292.602 122.715,292.427 60.436,292.784 60.006 C 293.056 59.678,305.919 59.648,306.245 59.974 C 306.405 60.134,306.453 67.125,306.453 90.388 C 306.453 112.215,306.506 120.694,306.646 120.954 C 306.751 121.152,306.904 121.835,306.984 122.473 C 307.536 126.875,310.613 131.841,314.205 134.127 C 314.617 134.389,314.992 134.604,315.039 134.604 C 315.086 134.604,315.688 134.870,316.376 135.196 C 319.147 136.508,325.253 137.198,327.541 136.457 C 327.995 136.310,328.679 136.133,329.060 136.064 C 329.441 135.996,330.338 135.707,331.052 135.424 C 335.611 133.616,339.001 129.789,340.296 124.989 C 340.553 124.036,340.878 122.860,341.018 122.375 C 341.239 121.614,341.273 117.351,341.273 91.074 C 341.273 71.847,341.335 60.492,341.441 60.213 L 341.609 59.771 346.941 59.723 C 364.024 59.568,366.977 59.586,369.078 59.859 M355.578 70.606 C 355.335 70.848,355.305 72.296,355.305 83.938 L 355.305 96.998 355.684 97.351 C 356.530 98.139,365.829 97.704,368.807 96.737 C 371.566 95.842,375.747 92.763,375.747 91.626 C 375.747 91.534,376.030 90.861,376.376 90.132 C 378.589 85.470,377.992 78.994,374.995 75.145 C 372.145 71.482,368.753 70.333,360.794 70.333 C 356.530 70.333,355.812 70.371,355.578 70.606 M203.959 72.731 C 204.409 73.227,204.401 157.615,203.952 157.947 C 203.464 158.307,190.848 158.255,190.484 157.891 C 190.055 157.462,190.069 73.204,190.499 72.729 C 190.943 72.239,203.515 72.240,203.959 72.731 M41.200 73.966 C 41.687 74.058,42.769 74.216,43.606 74.317 C 44.443 74.418,45.634 74.644,46.254 74.819 C 46.873 74.994,47.692 75.221,48.073 75.324 C 50.601 76.004,54.465 77.724,56.561 79.100 C 60.736 81.842,61.346 82.573,60.376 83.673 C 60.250 83.816,59.936 84.439,59.679 85.058 C 59.421 85.678,59.148 86.262,59.073 86.358 C 58.997 86.453,58.610 87.155,58.213 87.917 C 56.690 90.841,56.296 91.316,54.983 91.807 C 53.858 92.228,52.102 91.872,50.809 90.960 C 50.394 90.668,50.030 90.429,50.000 90.429 C 49.970 90.429,49.290 90.039,48.489 89.563 C 47.688 89.086,46.954 88.697,46.858 88.697 C 46.761 88.696,46.371 88.529,45.991 88.325 C 42.703 86.559,35.705 85.774,32.308 86.791 C 26.043 88.666,22.798 93.462,24.181 98.799 C 24.736 100.943,28.205 104.981,29.492 104.981 C 29.563 104.981,30.343 105.318,31.225 105.731 C 32.798 106.468,36.308 107.787,37.332 108.025 C 37.618 108.092,37.934 108.211,38.035 108.289 C 38.136 108.368,38.644 108.543,39.164 108.679 C 39.685 108.814,40.694 109.137,41.407 109.395 C 42.119 109.654,43.521 110.157,44.522 110.512 C 47.964 111.736,49.623 112.474,52.212 113.937 C 57.004 116.645,60.367 120.892,61.785 126.029 C 62.503 128.631,62.509 135.862,61.795 138.415 C 60.996 141.272,60.681 142.295,60.408 142.919 C 60.262 143.252,59.970 143.952,59.759 144.474 C 59.412 145.335,58.715 146.477,57.387 148.363 C 50.716 157.835,38.137 161.089,22.174 157.470 C 21.361 157.286,17.461 155.901,17.213 155.708 C 16.901 155.466,15.348 154.701,15.167 154.700 C 15.077 154.699,14.726 154.516,14.388 154.293 C 14.049 154.070,13.188 153.548,12.473 153.134 C 9.832 151.604,6.410 148.748,6.410 148.073 C 6.410 147.740,6.711 147.060,6.928 146.903 C 6.994 146.856,7.653 145.764,8.393 144.478 C 10.511 140.791,10.598 140.669,11.665 139.828 C 13.740 138.193,15.159 138.518,19.819 141.700 C 26.814 146.474,34.598 147.833,40.970 145.391 C 45.224 143.760,47.707 140.045,47.926 134.980 L 48.039 132.386 47.473 130.981 C 46.514 128.604,42.334 124.729,40.728 124.729 C 40.616 124.729,40.345 124.611,40.125 124.467 C 39.510 124.064,37.021 123.196,34.907 122.647 C 33.859 122.375,32.149 121.875,31.107 121.535 C 30.065 121.196,29.076 120.918,28.909 120.918 C 28.741 120.918,28.563 120.851,28.512 120.769 C 28.461 120.686,28.047 120.519,27.592 120.396 C 27.137 120.273,26.609 120.089,26.418 119.987 C 26.228 119.886,25.838 119.711,25.552 119.600 C 25.266 119.489,24.399 119.127,23.625 118.796 C 22.850 118.465,22.017 118.145,21.774 118.083 C 21.312 117.968,21.154 117.875,18.669 116.267 C 16.159 114.642,13.395 111.833,12.766 110.267 C 12.689 110.075,12.479 109.762,12.299 109.571 C 11.975 109.226,11.198 107.492,10.553 105.673 C 9.041 101.411,9.272 93.459,11.019 89.601 C 11.247 89.098,11.434 88.638,11.434 88.578 C 11.434 87.479,15.123 82.271,17.009 80.708 C 17.398 80.385,17.804 80.041,17.910 79.944 C 19.060 78.885,22.120 76.989,23.214 76.657 C 23.452 76.585,24.210 76.260,24.899 75.935 C 26.115 75.362,27.940 74.799,29.710 74.451 C 30.186 74.357,31.044 74.181,31.615 74.060 C 32.878 73.791,39.918 73.723,41.200 73.966 M319.571 89.981 C 321.117 90.392,322.374 91.286,323.566 92.822 C 327.032 97.285,330.681 97.518,334.854 93.543 C 336.344 92.124,336.307 91.945,336.084 99.520 C 335.982 102.952,335.835 109.385,335.757 113.816 C 335.639 120.517,335.569 121.987,335.341 122.564 C 335.190 122.945,335.025 123.661,334.975 124.155 C 334.666 127.165,331.390 130.210,327.392 131.202 C 320.296 132.963,313.305 129.189,312.691 123.267 C 312.598 122.379,312.444 121.442,312.346 121.187 C 312.231 120.885,312.170 115.652,312.170 106.212 L 312.170 91.702 312.600 91.298 C 313.827 90.145,317.548 89.442,319.571 89.981 M102.469 98.217 C 107.182 98.985,111.666 100.551,113.902 102.212 C 114.283 102.496,114.829 102.839,115.115 102.976 C 115.673 103.243,117.754 105.040,118.415 105.826 L 118.817 106.304 118.367 107.058 C 115.060 112.605,112.846 114.047,110.174 112.396 C 107.062 110.473,104.338 109.302,102.122 108.935 C 100.565 108.677,95.728 108.874,95.241 109.214 C 95.029 109.363,94.656 109.485,94.411 109.485 C 94.167 109.485,93.658 109.652,93.280 109.856 C 92.903 110.060,92.273 110.398,91.882 110.608 C 89.166 112.063,86.674 115.295,85.593 118.763 C 85.387 119.424,85.106 120.322,84.969 120.758 C 84.078 123.585,83.966 132.763,84.793 135.108 C 84.939 135.522,85.141 136.375,85.241 137.002 C 85.341 137.629,85.487 138.223,85.565 138.322 C 85.643 138.421,85.804 138.804,85.923 139.173 C 86.042 139.542,86.351 140.166,86.609 140.559 C 86.868 140.952,87.180 141.527,87.302 141.836 C 87.425 142.146,87.577 142.399,87.641 142.399 C 87.704 142.399,87.902 142.653,88.081 142.962 C 90.466 147.093,98.416 149.579,103.461 147.773 C 105.731 146.960,107.129 146.250,108.618 145.153 C 111.337 143.151,111.873 142.920,113.494 143.057 C 114.309 143.125,115.407 143.964,116.280 145.186 C 116.678 145.741,117.980 147.491,118.720 148.463 C 119.577 149.587,119.124 150.421,116.543 152.466 C 115.853 153.014,115.054 153.650,114.768 153.880 C 108.235 159.130,93.798 160.545,85.436 156.754 C 84.834 156.481,84.303 156.258,84.255 156.258 C 84.208 156.258,83.914 156.063,83.601 155.825 C 83.289 155.587,82.957 155.392,82.864 155.392 C 82.682 155.392,80.083 153.503,79.290 152.793 C 77.458 151.156,75.758 149.112,74.751 147.337 C 74.480 146.860,74.167 146.353,74.054 146.210 C 72.986 144.855,71.037 139.634,70.530 136.769 C 69.507 130.992,69.652 123.314,70.865 119.013 C 71.066 118.298,71.346 117.285,71.487 116.761 C 71.627 116.236,71.846 115.574,71.972 115.288 C 72.099 115.002,72.255 114.520,72.319 114.217 C 72.382 113.914,72.543 113.577,72.674 113.467 C 72.806 113.358,73.007 112.982,73.121 112.632 C 73.234 112.283,73.577 111.607,73.882 111.130 C 74.188 110.654,74.622 109.955,74.848 109.578 C 75.073 109.200,75.397 108.752,75.568 108.581 C 75.738 108.411,75.877 108.197,75.877 108.105 C 75.877 107.472,81.084 102.884,82.984 101.842 C 83.265 101.688,83.594 101.482,83.714 101.385 C 83.908 101.228,84.621 100.935,87.051 100.012 C 88.957 99.288,91.227 98.725,94.240 98.226 C 95.306 98.050,101.400 98.043,102.469 98.217 M159.649 98.650 C 162.048 99.341,163.985 100.097,164.893 100.697 C 165.241 100.928,165.916 101.360,166.392 101.659 C 167.701 102.478,170.215 105.104,171.347 106.833 C 172.586 108.727,172.885 109.280,173.297 110.447 C 174.053 112.590,174.621 114.553,174.621 115.028 C 174.621 115.283,174.737 116.264,174.879 117.209 C 175.179 119.203,175.285 157.742,174.992 158.036 C 174.335 158.693,164.920 157.853,164.920 157.138 C 164.920 157.064,164.687 156.660,164.403 156.241 C 164.119 155.822,163.884 155.245,163.880 154.959 C 163.876 154.673,163.719 154.099,163.530 153.684 C 163.342 153.269,163.188 152.776,163.188 152.590 C 163.188 151.406,161.836 151.275,160.926 152.372 C 160.626 152.734,158.561 154.268,156.893 155.370 C 152.307 158.397,143.468 159.926,138.328 158.581 C 137.757 158.432,136.911 158.241,136.449 158.158 C 135.372 157.963,132.564 156.548,131.207 155.516 C 129.349 154.103,126.635 150.021,126.635 148.640 C 126.635 148.376,126.508 147.819,126.352 147.402 C 126.001 146.461,125.819 141.796,126.093 140.754 C 126.193 140.372,126.415 139.507,126.586 138.830 C 126.757 138.153,126.984 137.491,127.091 137.358 C 127.198 137.225,127.463 136.765,127.679 136.336 C 128.387 134.930,130.402 132.572,131.584 131.766 C 134.814 129.563,136.330 128.734,138.242 128.125 C 138.670 127.988,139.567 127.669,140.234 127.416 C 140.901 127.162,141.849 126.853,142.342 126.727 C 142.834 126.602,143.321 126.448,143.423 126.385 C 143.652 126.244,146.586 125.628,148.116 125.401 C 148.735 125.309,150.217 125.083,151.408 124.898 C 152.736 124.693,154.977 124.525,157.205 124.463 C 161.660 124.341,161.282 124.631,161.282 121.330 C 161.282 114.149,159.157 110.566,154.152 109.310 C 151.643 108.681,147.311 109.049,145.050 110.084 C 144.522 110.326,143.996 110.524,143.882 110.524 C 143.604 110.524,141.733 111.538,139.427 112.936 C 135.592 115.263,132.636 114.477,130.529 110.569 C 130.284 110.116,129.815 109.288,129.485 108.730 C 128.512 107.079,129.042 106.277,132.609 104.004 C 133.335 103.540,134.416 102.850,135.010 102.469 C 137.279 101.013,140.977 99.665,145.864 98.511 C 147.567 98.109,147.998 98.080,152.626 98.066 L 157.568 98.051 159.649 98.650 M249.285 98.212 C 253.014 98.885,254.971 99.493,258.120 100.957 C 260.282 101.963,263.466 104.695,265.338 107.151 C 266.327 108.448,266.782 109.109,266.782 109.249 C 266.782 109.318,267.214 110.252,267.742 111.326 C 268.788 113.452,269.484 115.320,269.736 116.674 C 269.825 117.150,270.019 118.086,270.167 118.753 C 270.338 119.519,270.474 121.295,270.537 123.578 C 270.659 127.983,270.470 128.944,269.320 129.777 L 268.636 130.273 249.956 130.273 L 231.277 130.273 230.997 130.701 C 230.411 131.594,231.749 137.585,233.126 140.234 C 233.632 141.207,235.560 143.956,235.742 143.963 C 235.807 143.966,236.210 144.282,236.639 144.666 C 242.019 149.477,250.837 149.277,259.939 144.137 C 261.730 143.125,261.836 143.092,263.301 143.092 C 264.841 143.092,265.364 143.379,266.449 144.820 C 266.774 145.251,267.511 146.189,268.087 146.903 C 270.255 149.593,270.263 149.684,268.462 151.265 C 265.017 154.289,260.454 156.796,257.168 157.470 C 256.596 157.588,255.918 157.792,255.660 157.924 C 255.403 158.056,254.813 158.164,254.349 158.164 C 253.885 158.164,253.116 158.280,252.639 158.421 C 247.770 159.867,235.934 158.446,231.834 155.923 C 231.359 155.631,230.910 155.392,230.835 155.392 C 230.675 155.392,229.091 154.357,227.977 153.524 C 226.918 152.732,223.694 149.559,223.186 148.810 C 222.960 148.476,222.461 147.774,222.076 147.250 C 221.692 146.726,221.236 146.024,221.064 145.691 C 220.682 144.951,220.323 144.305,220.100 143.958 C 219.904 143.653,219.371 142.221,218.424 139.454 C 215.701 131.500,216.179 120.676,219.569 113.533 C 219.906 112.824,220.182 112.178,220.182 112.098 C 220.182 112.018,220.292 111.861,220.427 111.749 C 220.562 111.637,220.838 111.192,221.041 110.760 C 221.762 109.226,225.592 104.848,227.209 103.709 C 229.102 102.375,231.083 101.144,231.608 100.975 C 231.946 100.867,232.328 100.693,232.458 100.589 C 232.785 100.329,233.583 100.032,236.120 99.229 C 239.384 98.194,246.247 97.665,249.285 98.212 M242.269 108.266 C 241.984 108.350,241.321 108.539,240.797 108.687 C 240.273 108.834,239.688 109.031,239.498 109.125 C 239.307 109.219,238.872 109.407,238.532 109.542 C 237.747 109.854,236.010 111.169,235.239 112.036 C 233.636 113.837,232.166 116.491,231.853 118.146 C 231.791 118.480,231.638 118.955,231.514 119.202 C 231.100 120.026,231.019 121.332,231.365 121.619 C 231.788 121.970,256.755 122.095,257.405 121.749 C 258.066 121.397,257.874 118.512,257.036 116.204 C 255.576 112.189,253.196 109.833,249.372 108.621 C 248.042 108.199,243.307 107.963,242.269 108.266 M290.048 132.765 C 290.259 132.992,290.536 133.479,290.664 133.847 C 290.792 134.216,291.079 134.801,291.302 135.147 C 291.525 135.494,291.822 136.053,291.963 136.391 C 293.974 141.202,300.536 147.397,306.799 150.396 C 312.975 153.353,324.332 154.943,329.983 153.642 C 330.428 153.539,331.416 153.350,332.178 153.221 C 335.343 152.686,340.247 151.050,341.793 150.015 C 342.031 149.855,342.421 149.655,342.659 149.570 C 343.017 149.441,344.879 148.246,346.542 147.077 C 350.614 144.212,354.125 139.971,356.779 134.708 C 358.132 132.024,358.252 131.951,359.398 133.105 C 359.696 133.405,360.132 133.823,360.367 134.033 C 361.101 134.688,362.172 136.196,362.865 137.549 L 363.531 138.848 363.529 141.533 L 363.527 144.218 362.865 145.510 C 361.432 148.311,359.599 150.521,356.589 153.080 C 355.335 154.146,353.566 155.392,353.306 155.392 C 353.227 155.392,353.001 155.537,352.805 155.713 C 351.868 156.555,344.242 160.007,342.618 160.325 C 342.307 160.386,341.624 160.578,341.100 160.751 C 338.006 161.778,335.284 162.320,330.100 162.941 C 325.531 163.489,315.590 163.056,312.343 162.167 C 312.010 162.076,311.308 161.948,310.784 161.884 C 310.260 161.819,309.597 161.663,309.311 161.537 C 309.026 161.411,308.441 161.228,308.012 161.130 C 304.861 160.413,298.191 157.728,295.712 156.178 C 283.642 148.632,280.910 140.587,288.046 133.608 C 289.483 132.202,289.515 132.189,290.048 132.765 M158.683 133.054 C 157.778 133.127,156.102 133.226,154.959 133.273 C 153.816 133.320,152.529 133.443,152.100 133.546 C 151.672 133.648,150.697 133.853,149.935 134.000 C 141.914 135.551,138.828 138.569,139.528 144.176 C 139.755 145.991,141.797 148.354,143.508 148.783 C 143.899 148.881,144.731 149.091,145.358 149.249 C 149.399 150.270,155.836 148.165,159.550 144.608 C 159.924 144.251,160.311 143.958,160.411 143.958 C 161.137 143.958,161.281 143.000,161.281 138.139 C 161.282 133.263,161.210 132.786,160.489 132.896 C 160.401 132.909,159.589 132.980,158.683 133.054 " stroke="none" fill="#fbfbfb" fill-rule="evenodd"></path></g></svg>